<svg width="81" height="81" viewBox="0 0 81 81" fill="none" xmlns="http://www.w3.org/2000/svg">
<path d="M23.625 47.25C23.625 48.1451 23.2694 49.0035 22.6365 49.6365C22.0035 50.2694 21.1451 50.625 20.25 50.625H16.875C15.9799 50.625 15.1215 50.2694 14.4885 49.6365C13.8556 49.0035 13.5 48.1451 13.5 47.25C13.5 46.3549 13.8556 45.4965 14.4885 44.8635C15.1215 44.2306 15.9799 43.875 16.875 43.875H20.25C21.1451 43.875 22.0035 44.2306 22.6365 44.8635C23.2694 45.4965 23.625 46.3549 23.625 47.25ZM37.125 43.875H33.75C32.8549 43.875 31.9965 44.2306 31.3635 44.8635C30.7306 45.4965 30.375 46.3549 30.375 47.25C30.375 48.1451 30.7306 49.0035 31.3635 49.6365C31.9965 50.2694 32.8549 50.625 33.75 50.625H37.125C38.0201 50.625 38.8785 50.2694 39.5115 49.6365C40.1444 49.0035 40.5 48.1451 40.5 47.25C40.5 46.3549 40.1444 45.4965 39.5115 44.8635C38.8785 44.2306 38.0201 43.875 37.125 43.875ZM20.25 57.375H16.875C15.9799 57.375 15.1215 57.7306 14.4885 58.3635C13.8556 58.9964 13.5 59.8549 13.5 60.75C13.5 61.6451 13.8556 62.5036 14.4885 63.1365C15.1215 63.7694 15.9799 64.125 16.875 64.125H20.25C21.1451 64.125 22.0035 63.7694 22.6365 63.1365C23.2694 62.5036 23.625 61.6451 23.625 60.75C23.625 59.8549 23.2694 58.9964 22.6365 58.3635C22.0035 57.7306 21.1451 57.375 20.25 57.375ZM37.125 57.375H33.75C32.8549 57.375 31.9965 57.7306 31.3635 58.3635C30.7306 58.9964 30.375 59.8549 30.375 60.75C30.375 61.6451 30.7306 62.5036 31.3635 63.1365C31.9965 63.7694 32.8549 64.125 33.75 64.125H37.125C38.0201 64.125 38.8785 63.7694 39.5115 63.1365C40.1444 62.5036 40.5 61.6451 40.5 60.75C40.5 59.8549 40.1444 58.9964 39.5115 58.3635C38.8785 57.7306 38.0201 57.375 37.125 57.375ZM20.25 16.875H16.875C15.9799 16.875 15.1215 17.2306 14.4885 17.8635C13.8556 18.4965 13.5 19.3549 13.5 20.25C13.5 21.1451 13.8556 22.0035 14.4885 22.6365C15.1215 23.2694 15.9799 23.625 16.875 23.625H20.25C21.1451 23.625 22.0035 23.2694 22.6365 22.6365C23.2694 22.0035 23.625 21.1451 23.625 20.25C23.625 19.3549 23.2694 18.4965 22.6365 17.8635C22.0035 17.2306 21.1451 16.875 20.25 16.875ZM37.125 16.875H33.75C32.8549 16.875 31.9965 17.2306 31.3635 17.8635C30.7306 18.4965 30.375 19.3549 30.375 20.25C30.375 21.1451 30.7306 22.0035 31.3635 22.6365C31.9965 23.2694 32.8549 23.625 33.75 23.625H37.125C38.0201 23.625 38.8785 23.2694 39.5115 22.6365C40.1444 22.0035 40.5 21.1451 40.5 20.25C40.5 19.3549 40.1444 18.4965 39.5115 17.8635C38.8785 17.2306 38.0201 16.875 37.125 16.875ZM20.25 30.375H16.875C15.9799 30.375 15.1215 30.7306 14.4885 31.3635C13.8556 31.9965 13.5 32.8549 13.5 33.75C13.5 34.6451 13.8556 35.5035 14.4885 36.1365C15.1215 36.7694 15.9799 37.125 16.875 37.125H20.25C21.1451 37.125 22.0035 36.7694 22.6365 36.1365C23.2694 35.5035 23.625 34.6451 23.625 33.75C23.625 32.8549 23.2694 31.9965 22.6365 31.3635C22.0035 30.7306 21.1451 30.375 20.25 30.375ZM37.125 30.375H33.75C32.8549 30.375 31.9965 30.7306 31.3635 31.3635C30.7306 31.9965 30.375 32.8549 30.375 33.75C30.375 34.6451 30.7306 35.5035 31.3635 36.1365C31.9965 36.7694 32.8549 37.125 33.75 37.125H37.125C38.0201 37.125 38.8785 36.7694 39.5115 36.1365C40.1444 35.5035 40.5 34.6451 40.5 33.75C40.5 32.8549 40.1444 31.9965 39.5115 31.3635C38.8785 30.7306 38.0201 30.375 37.125 30.375ZM81 33.75V64.125C80.9946 68.5989 79.215 72.888 76.0515 76.0515C72.888 79.215 68.5989 80.9946 64.125 81H16.875C12.4011 80.9946 8.11201 79.215 4.94849 76.0515C1.78498 72.888 0.00535902 68.5989 0 64.125L0 16.875C0.00535902 12.4011 1.78498 8.11201 4.94849 4.94849C8.11201 1.78498 12.4011 0.00535902 16.875 0L37.125 0C41.5989 0.00535902 45.888 1.78498 49.0515 4.94849C52.215 8.11201 53.9946 12.4011 54 16.875H64.125C68.5989 16.8804 72.888 18.66 76.0515 21.8235C79.215 24.987 80.9946 29.2761 81 33.75ZM16.875 74.25H47.25V16.875C47.25 14.1897 46.1833 11.6144 44.2845 9.71554C42.3857 7.81674 39.8103 6.75 37.125 6.75H16.875C14.1897 6.75 11.6144 7.81674 9.71554 9.71554C7.81674 11.6144 6.75 14.1897 6.75 16.875V64.125C6.75 66.8103 7.81674 69.3857 9.71554 71.2845C11.6144 73.1833 14.1897 74.25 16.875 74.25ZM74.25 33.75C74.25 31.0647 73.1833 28.4893 71.2845 26.5905C69.3857 24.6917 66.8103 23.625 64.125 23.625H54V74.25H64.125C66.8103 74.25 69.3857 73.1833 71.2845 71.2845C73.1833 69.3857 74.25 66.8103 74.25 64.125V33.75ZM64.125 43.875C63.4575 43.875 62.805 44.0729 62.25 44.4438C61.6949 44.8146 61.2624 45.3417 61.0069 45.9584C60.7515 46.5751 60.6846 47.2537 60.8148 47.9084C60.9451 48.5631 61.2665 49.1645 61.7385 49.6365C62.2105 50.1085 62.8119 50.4299 63.4666 50.5602C64.1213 50.6904 64.7999 50.6235 65.4166 50.3681C66.0333 50.1126 66.5604 49.6801 66.9312 49.125C67.3021 48.57 67.5 47.9175 67.5 47.25C67.5 46.3549 67.1444 45.4965 66.5115 44.8635C65.8786 44.2306 65.0201 43.875 64.125 43.875ZM64.125 57.375C63.4575 57.375 62.805 57.5729 62.25 57.9438C61.6949 58.3146 61.2624 58.8417 61.0069 59.4584C60.7515 60.0751 60.6846 60.7537 60.8148 61.4084C60.9451 62.0631 61.2665 62.6645 61.7385 63.1365C62.2105 63.6085 62.8119 63.9299 63.4666 64.0602C64.1213 64.1904 64.7999 64.1235 65.4166 63.8681C66.0333 63.6126 66.5604 63.1801 66.9312 62.625C67.3021 62.07 67.5 61.4175 67.5 60.75C67.5 59.8549 67.1444 58.9964 66.5115 58.3635C65.8786 57.7306 65.0201 57.375 64.125 57.375ZM64.125 30.375C63.4575 30.375 62.805 30.5729 62.25 30.9438C61.6949 31.3146 61.2624 31.8417 61.0069 32.4584C60.7515 33.0751 60.6846 33.7537 60.8148 34.4084C60.9451 35.0631 61.2665 35.6645 61.7385 36.1365C62.2105 36.6085 62.8119 36.9299 63.4666 37.0602C64.1213 37.1904 64.7999 37.1235 65.4166 36.8681C66.0333 36.6126 66.5604 36.1801 66.9312 35.625C67.3021 35.07 67.5 34.4175 67.5 33.75C67.5 32.8549 67.1444 31.9965 66.5115 31.3635C65.8786 30.7306 65.0201 30.375 64.125 30.375Z" fill="url(#paint0_linear_305_131)"/>
<defs>
<linearGradient id="paint0_linear_305_131" x1="0" y1="40.5" x2="81" y2="40.5" gradientUnits="userSpaceOnUse">
<stop stop-color="#1A4973"/>
<stop offset="1" stop-color="#6AA9DA"/>
</linearGradient>
</defs>
</svg>
