<svg width="86" height="85" viewBox="0 0 86 85" fill="none" xmlns="http://www.w3.org/2000/svg">
<g clip-path="url(#clip0_116_2059)">
<path d="M19.9795 60.209C22.9135 60.209 25.292 57.8305 25.292 54.8965C25.292 51.9625 22.9135 49.584 19.9795 49.584C17.0455 49.584 14.667 51.9625 14.667 54.8965C14.667 57.8305 17.0455 60.209 19.9795 60.209Z" fill="url(#paint0_linear_116_2059)"/>
<path d="M67.7917 10.625H18.2083C13.5135 10.6306 9.0126 12.4981 5.69286 15.8179C2.37312 19.1376 0.505624 23.6385 0.5 28.3333L0.5 56.6667C0.505624 61.3615 2.37312 65.8624 5.69286 69.1821C9.0126 72.5019 13.5135 74.3694 18.2083 74.375H67.7917C72.4865 74.3694 76.9874 72.5019 80.3071 69.1821C83.6269 65.8624 85.4944 61.3615 85.5 56.6667V28.3333C85.4944 23.6385 83.6269 19.1376 80.3071 15.8179C76.9874 12.4981 72.4865 10.6306 67.7917 10.625ZM18.2083 17.7083H67.7917C70.6096 17.7083 73.3121 18.8278 75.3047 20.8203C77.2973 22.8129 78.4167 25.5154 78.4167 28.3333H7.58333C7.58333 25.5154 8.70275 22.8129 10.6953 20.8203C12.6879 18.8278 15.3904 17.7083 18.2083 17.7083ZM67.7917 67.2917H18.2083C15.3904 67.2917 12.6879 66.1722 10.6953 64.1797C8.70275 62.1871 7.58333 59.4846 7.58333 56.6667V35.4167H78.4167V56.6667C78.4167 59.4846 77.2973 62.1871 75.3047 64.1797C73.3121 66.1722 70.6096 67.2917 67.7917 67.2917Z" fill="url(#paint1_linear_116_2059)"/>
</g>
<defs>
<linearGradient id="paint0_linear_116_2059" x1="14.667" y1="54.8965" x2="25.292" y2="54.8965" gradientUnits="userSpaceOnUse">
<stop stop-color="#1A4973"/>
<stop offset="1" stop-color="#6AA9DA"/>
</linearGradient>
<linearGradient id="paint1_linear_116_2059" x1="0.5" y1="42.5" x2="85.5" y2="42.5" gradientUnits="userSpaceOnUse">
<stop stop-color="#1A4973"/>
<stop offset="1" stop-color="#6AA9DA"/>
</linearGradient>
<clipPath id="clip0_116_2059">
<rect width="85" height="85" fill="white" transform="translate(0.5)"/>
</clipPath>
</defs>
</svg>
