<svg width="62" height="62" viewBox="0 0 62 62" fill="none" xmlns="http://www.w3.org/2000/svg">
<g clip-path="url(#clip0_6_256)">
<path d="M37.7172 55.0257C36.9422 55.6095 36.1181 56.2243 35.418 56.834H41.3338C42.019 56.834 42.6761 57.1062 43.1605 57.5906C43.645 58.0751 43.9172 58.7322 43.9172 59.4173C43.9172 60.1025 43.645 60.7595 43.1605 61.244C42.6761 61.7285 42.019 62.0007 41.3338 62.0007H31.0005C30.3154 62.0007 29.6583 61.7285 29.1738 61.244C28.6893 60.7595 28.4172 60.1025 28.4172 59.4173C28.4172 55.5423 31.7109 53.0727 34.6172 50.8923C36.5547 49.4405 38.7505 47.7923 38.7505 46.5007C38.7505 45.8155 38.4783 45.1584 37.9939 44.674C37.5094 44.1895 36.8523 43.9173 36.1672 43.9173C35.482 43.9173 34.825 44.1895 34.3405 44.674C33.856 45.1584 33.5838 45.8155 33.5838 46.5007C33.5838 47.1858 33.3117 47.8429 32.8272 48.3274C32.3427 48.8118 31.6856 49.084 31.0005 49.084C30.3154 49.084 29.6583 48.8118 29.1738 48.3274C28.6893 47.8429 28.4172 47.1858 28.4172 46.5007C28.4172 44.4452 29.2337 42.474 30.6871 41.0206C32.1405 39.5672 34.1117 38.7507 36.1672 38.7507C38.2226 38.7507 40.1938 39.5672 41.6473 41.0206C43.1007 42.474 43.9172 44.4452 43.9172 46.5007C43.9172 50.3757 40.6234 52.8453 37.7172 55.0257ZM59.4172 38.7507C58.732 38.7507 58.075 39.0228 57.5905 39.5073C57.106 39.9918 56.8338 40.6488 56.8338 41.334V49.084H54.2505C53.5654 49.084 52.9083 48.8118 52.4238 48.3274C51.9393 47.8429 51.6672 47.1858 51.6672 46.5007V41.334C51.6672 40.6488 51.395 39.9918 50.9105 39.5073C50.4261 39.0228 49.769 38.7507 49.0838 38.7507C48.3987 38.7507 47.7416 39.0228 47.2571 39.5073C46.7727 39.9918 46.5005 40.6488 46.5005 41.334V46.5007C46.5005 48.5561 47.317 50.5273 48.7704 51.9807C50.2238 53.4341 52.1951 54.2507 54.2505 54.2507H56.8338V59.4173C56.8338 60.1025 57.106 60.7595 57.5905 61.244C58.075 61.7285 58.732 62.0007 59.4172 62.0007C60.1023 62.0007 60.7594 61.7285 61.2439 61.244C61.7283 60.7595 62.0005 60.1025 62.0005 59.4173V41.334C62.0005 40.6488 61.7283 39.9918 61.2439 39.5073C60.7594 39.0228 60.1023 38.7507 59.4172 38.7507ZM33.5838 31.0007V18.084C33.5838 17.3988 33.3117 16.7418 32.8272 16.2573C32.3427 15.7728 31.6856 15.5007 31.0005 15.5007C30.3154 15.5007 29.6583 15.7728 29.1738 16.2573C28.6893 16.7418 28.4172 17.3988 28.4172 18.084V28.4173H20.6672C19.982 28.4173 19.3249 28.6895 18.8405 29.174C18.356 29.6584 18.0838 30.3155 18.0838 31.0007C18.0838 31.6858 18.356 32.3429 18.8405 32.8273C19.3249 33.3118 19.982 33.584 20.6672 33.584H31.0005C31.6856 33.584 32.3427 33.3118 32.8272 32.8273C33.3117 32.3429 33.5838 31.6858 33.5838 31.0007ZM59.4172 5.16732C58.732 5.16732 58.075 5.43949 57.5905 5.92396C57.106 6.40843 56.8338 7.06551 56.8338 7.75065V13.8835C54.1422 9.82139 50.5308 6.45104 46.2928 4.0459C42.0547 1.64077 37.3094 0.268609 32.4418 0.0407489C27.5741 -0.187112 22.7213 0.735749 18.2772 2.73445C13.833 4.73316 9.92254 7.7514 6.86318 11.5443C3.80382 15.3372 1.6817 19.7979 0.669005 24.5644C-0.34369 29.331 -0.218434 34.2692 1.03461 38.9783C2.28766 43.6874 4.63319 48.0347 7.88091 51.6676C11.1286 55.3005 15.187 58.1167 19.7268 59.8875C20.0269 60.0032 20.3456 60.0628 20.6672 60.0632C21.27 60.0641 21.8542 59.8542 22.3186 59.4697C22.7829 59.0853 23.0982 58.5505 23.2098 57.9581C23.3214 57.3657 23.2224 56.7529 22.9297 56.2258C22.6371 55.6988 22.1694 55.2907 21.6075 55.0722C17.7532 53.5818 14.3127 51.1885 11.5748 48.0933C8.83692 44.9981 6.8815 41.2912 5.8727 37.2838C4.86391 33.2765 4.83119 29.0856 5.77729 25.063C6.72339 21.0403 8.6207 17.3034 11.3099 14.1658C13.9992 11.0282 17.4019 8.5815 21.2324 7.03113C25.063 5.48076 29.2095 4.87194 33.324 5.25579C37.4386 5.63963 41.401 7.00494 44.8786 9.23709C48.3563 11.4692 51.2477 14.5031 53.3102 18.084H46.5005C45.8154 18.084 45.1583 18.3562 44.6738 18.8406C44.1893 19.3251 43.9172 19.9822 43.9172 20.6673C43.9172 21.3525 44.1893 22.0095 44.6738 22.494C45.1583 22.9785 45.8154 23.2507 46.5005 23.2507H54.2505C56.3059 23.2507 58.2772 22.4341 59.7306 20.9807C61.184 19.5273 62.0005 17.5561 62.0005 15.5007V7.75065C62.0005 7.06551 61.7283 6.40843 61.2439 5.92396C60.7594 5.43949 60.1023 5.16732 59.4172 5.16732Z" fill="#1A4973"/>
</g>
<defs>
<clipPath id="clip0_6_256">
<rect width="62" height="62" fill="white"/>
</clipPath>
</defs>
</svg>
